<svg width="165" height="54" viewBox="0 0 165 54" fill="none" xmlns="http://www.w3.org/2000/svg">
<path d="M4.50001 44C10.5 33.5 -0.499944 17.5 4.50001 10C14.5 3.5 28 3 28 3L66 7L111.539 13.5L128 15C128 15 149.5 7.00001 160 7C155.5 12.5 165.463 32.1399 161.5 40.5C150 46.5 145 49.5 145 49.5C145 49.5 101.5 52.5 90 46.5C71 48.5 42.5387 38.5 42.5387 38.5L30.0387 40.5C30.0387 40.5 18 42 4.50001 44Z" fill="white"/>
<path d="M39.9853 41.5C24.8349 41.5 3.00002 50.467 3 47.2779C12.4962 42.6389 33.9877 38 39.9853 38L91.5 45L90 50C90 50 55.1357 41.5 39.9853 41.5Z" fill="black" stroke="black" stroke-width="2"/>
<path d="M137 50.1667C153.5 47.6667 163.5 38.8424 163.5 41.5C156.5 51.5 138.599 53 132.5 53L91 50.1667L90 45C90 45 123.5 48.1667 137 50.1667Z" fill="black" stroke="black" stroke-width="2"/>
<path d="M124.515 12.5C139.665 12.5 161.5 3.53294 161.5 6.72206C152.004 11.3611 130.512 16 124.515 16L73 8.99998L74.5 3.99998C74.5 3.99998 109.364 12.5 124.515 12.5Z" fill="black" stroke="black" stroke-width="2"/>
<path d="M27.5 3.83334C11 6.33334 1.00002 15.1576 1 12.5C8 2.5 25.9007 1 32 1L73.5 3.83334L74.5 9C74.5 9 41 5.83334 27.5 3.83334Z" fill="black" stroke="black" stroke-width="2"/>
</svg>
