<svg width="54" height="44" viewBox="0 0 54 44" fill="none" xmlns="http://www.w3.org/2000/svg">
<path d="M47.9899 2.69285C47.2145 5.06154 46.7588 7.12155 44.861 8.74929C45.2783 9.14155 45.662 9.55665 46.0096 9.99169C48.315 8.14584 49.3076 5.23763 49.8533 2.98925L47.9899 2.69285ZM9.41256 10.131C12.2106 12.1343 17.3688 13.8447 22.9746 14.4658C23.9164 9.78682 25.6918 5.76357 31.2711 4.86294C22.0488 2.02804 13.3692 3.58625 9.41267 10.1309L9.41256 10.131ZM28.5037 7.46762C26.0441 8.97471 24.9715 12.2097 24.7941 15.5368C24.6295 18.6271 25.2151 21.6947 25.7513 23.2798C27.6988 23.7163 31.4682 24.1931 35.2659 24.0591C39.3541 23.9147 43.3297 23.0411 45.1811 21.0395C47.9439 17.1994 46.3798 12.2174 42.9131 9.31356C39.1317 6.67966 32.7676 4.93968 28.5037 7.46762ZM9.88823 12.3802C7.62613 14.0788 5.90467 16.4258 5.17219 19.639C8.23891 20.9026 10.7714 21.3515 13.7659 21.6679C15.8608 19.6377 16.7847 17.4598 17.9032 15.2189C14.8358 14.5434 12.0664 13.5703 9.88823 12.3802ZM19.7717 15.5868C18.3574 19.4723 15.2223 27.4473 17.6631 29.8628C19.8775 31.625 30.6053 29.6651 35.2051 28.1469C34.9855 27.3115 34.8087 26.469 34.6749 25.6216C31.173 25.5354 27.5304 25.3932 24.2145 24.5327C23.2674 21.5969 22.8252 18.5093 22.8766 16.0187C21.8347 15.9097 20.7988 15.7657 19.7716 15.5868H19.7717ZM48.3794 18.7871C47.3461 23.3485 41.1275 25.2074 36.5809 25.5418C37.3442 30.1042 39.4454 34.3021 41.9069 36.579C50.913 33.1261 51.4071 24.8841 48.3794 18.7871ZM6.24544 21.8707C4.78755 24.0452 3.77431 26.8513 3.60303 29.0948C5.38893 29.5616 7.50495 29.6893 9.22947 29.7229C9.9031 27.5454 11.1781 25.2935 12.7093 23.1119C10.5388 22.8115 8.14335 22.4685 6.24544 21.8707ZM15.5889 22.2091C13.205 26.1056 9.67497 31.4763 11.0892 35.2138C17.1914 35.8035 22.8672 33.7012 27.0646 31.5536C23.6249 32.047 18.4424 32.8463 16.1106 31.1292C14.2026 28.6486 14.7379 26.125 15.5889 22.2091ZM35.6572 29.6686C32.4629 30.297 30.2536 31.7612 27.7323 33.037C28.171 35.1931 28.7422 38.2764 30.225 40.0302C34.1734 39.4341 37.0572 38.033 39.1443 36.1921C37.6823 34.4192 36.4871 32.1651 35.6572 29.6686ZM4.88637 30.9604C3.81333 34.0924 2.99743 37.9486 4.42241 40.6398C7.7297 41.8001 12.4684 41.136 16.3169 40.2625C16.1028 39.1567 15.98 37.9754 15.9447 37.0319C13.4942 37.1528 11.5893 37.0792 9.61823 36.4131C8.79842 34.7302 8.61606 32.7455 8.85727 31.2635C7.48101 31.2047 6.11782 31.1394 4.88637 30.9604ZM25.9597 33.8962C23.2786 35.143 20.5111 36.1811 17.8354 36.7294C17.8774 38.5 17.9056 40.0774 18.6069 41.3071C21.8764 41.0281 24.7844 40.3883 27.4842 39.1566C26.6908 37.2512 26.2722 35.6368 25.9597 33.8962Z" fill="#FFC700"/>
</svg>
