<svg width="18" height="56" viewBox="0 0 18 56" fill="none" xmlns="http://www.w3.org/2000/svg">
<path d="M15.4597 41.9898C15.2259 42.8486 15.0886 43.5955 14.5166 44.1856C14.6423 44.3278 14.758 44.4783 14.8628 44.6361C15.5577 43.9668 15.8568 42.9124 16.0213 42.0973L15.4597 41.9898ZM3.83189 44.6866C4.67527 45.4129 6.23002 46.033 7.91968 46.2582C8.20356 44.5618 8.73868 43.1031 10.4204 42.7766C7.64063 41.7488 5.02449 42.3137 3.83192 44.6866L3.83189 44.6866ZM9.58623 43.7209C8.84489 44.2674 8.52159 45.4402 8.46812 46.6465C8.4185 47.7669 8.59499 48.8791 8.75661 49.4538C9.34364 49.6121 10.4798 49.7849 11.6245 49.7363C12.8567 49.684 14.055 49.3673 14.6131 48.6416C15.4458 47.2493 14.9744 45.443 13.9295 44.3902C12.7897 43.4353 10.8714 42.8044 9.58623 43.7209ZM3.97526 45.502C3.29343 46.1179 2.77456 46.9688 2.55378 48.1338C3.47813 48.5919 4.24147 48.7547 5.14405 48.8694C5.77549 48.1333 6.05397 47.3437 6.3911 46.5313C5.46652 46.2863 4.63179 45.9335 3.97526 45.502ZM6.95429 46.6646C6.52799 48.0734 5.58303 50.9648 6.31871 51.8406C6.98617 52.4794 10.2197 51.7689 11.6061 51.2184C11.54 50.9155 11.4866 50.6101 11.4463 50.3028C10.3908 50.2716 9.29287 50.2201 8.2934 49.9081C8.00793 48.8437 7.87467 47.7242 7.89015 46.8212C7.57611 46.7817 7.26388 46.7295 6.95426 46.6646H6.95429ZM15.5771 47.825C15.2656 49.4787 13.3913 50.1527 12.0208 50.2739C12.2509 51.9281 12.8842 53.4501 13.6261 54.2756C16.3407 53.0237 16.4896 50.0355 15.5771 47.825ZM2.87727 48.9429C2.43784 49.7313 2.13244 50.7487 2.08081 51.5621C2.61911 51.7314 3.25691 51.7777 3.7767 51.7898C3.97974 51.0003 4.36405 50.1839 4.82558 49.3929C4.17134 49.284 3.44933 49.1597 2.87727 48.9429ZM5.69353 49.0656C4.97499 50.4783 3.91098 52.4255 4.33725 53.7806C6.17655 53.9944 7.88732 53.2322 9.15246 52.4536C8.1157 52.6324 6.55361 52.9223 5.85077 52.2997C5.27569 51.4003 5.43702 50.4854 5.69353 49.0656ZM11.7424 51.7701C10.7796 51.998 10.1137 52.5288 9.35372 52.9914C9.48597 53.7731 9.65814 54.891 10.1051 55.5268C11.2952 55.3107 12.1644 54.8027 12.7935 54.1353C12.3528 53.4925 11.9926 52.6753 11.7424 51.7701ZM2.46763 52.2385C2.1442 53.374 1.89827 54.7721 2.32779 55.7478C3.32465 56.1685 4.75297 55.9277 5.91295 55.6111C5.84841 55.2102 5.81141 54.7819 5.80076 54.4398C5.06216 54.4836 4.488 54.4569 3.89388 54.2154C3.64678 53.6053 3.59181 52.8857 3.66452 52.3484C3.24969 52.3271 2.83881 52.3034 2.46763 52.2385ZM8.81943 53.3029C8.01133 53.7549 7.17717 54.1313 6.37066 54.3301C6.38331 54.972 6.39183 55.5439 6.6032 55.9898C7.58869 55.8886 8.46519 55.6567 9.27895 55.2101C9.0398 54.5193 8.91362 53.934 8.81943 53.3029Z" fill="#725110"/>
<path d="M0.620538 27.3828C0.98997 26.5845 1.24538 25.88 1.91033 25.3947C1.80717 25.2372 1.71542 25.0732 1.63571 24.9039C0.835484 25.4471 0.369695 26.4254 0.076348 27.192L0.620538 27.3828ZM12.6654 26.5521C11.9377 25.7167 10.4824 24.8751 8.82974 24.3963C8.27763 26.0007 7.51212 27.3354 5.78016 27.3939C8.39493 28.8201 11.0983 28.6738 12.6654 26.5521L12.6654 26.5521ZM6.76305 26.6048C7.59024 26.188 8.09889 25.0984 8.34321 23.9347C8.5701 22.8539 8.56976 21.7463 8.49922 21.1631C7.93772 20.919 6.82989 20.5762 5.67846 20.4473C4.43896 20.3086 3.19151 20.4319 2.51909 21.051C1.46671 22.2755 1.65192 24.1028 2.52934 25.2863C3.51707 26.3894 5.33387 27.2974 6.76305 26.6048ZM12.6512 25.7378C13.4299 25.2445 14.0831 24.4976 14.488 23.3999C13.6369 22.8126 12.9 22.537 12.0163 22.2867C11.2689 22.9046 10.8657 23.6288 10.4003 24.3663C11.2853 24.7465 12.0635 25.2176 12.6512 25.7378ZM9.85866 24.15C10.5075 22.8471 11.9093 20.1835 11.3128 19.2195C10.747 18.4961 7.40371 18.6889 5.93133 19.0103C5.9495 19.3148 5.95444 19.6197 5.94611 19.9244C6.99581 20.1172 8.08466 20.3362 9.03394 20.793C9.15073 21.871 9.10672 22.979 8.94835 23.8539C9.25588 23.9406 9.55958 24.0394 9.85869 24.15L9.85866 24.15ZM1.42666 21.696C1.99957 20.1373 3.97902 19.771 5.3675 19.8641C5.39941 18.2217 5.00744 16.6457 4.39679 15.7295C1.48633 16.5281 0.864649 19.4082 1.42666 21.696ZM14.2928 22.564C14.8567 21.8657 15.3228 20.9243 15.5031 20.1421C14.9921 19.8948 14.3621 19.7517 13.8447 19.6599C13.5169 20.3957 13.0037 21.1297 12.4174 21.8271C13.0538 22.0335 13.7555 22.2654 14.2928 22.564ZM11.4983 22.0115C12.4398 20.7496 13.8111 19.0217 13.5996 17.6397C11.7957 17.1489 9.96574 17.6262 8.57842 18.188C9.64263 18.1737 11.2493 18.1325 11.853 18.8455C12.2853 19.8077 11.9793 20.6717 11.4983 22.0115ZM5.88247 18.4534C6.88054 18.3802 7.6299 17.9669 8.46244 17.6345C8.45401 16.8547 8.45889 15.7422 8.11295 15.0558C6.88965 15.0826 5.94076 15.4423 5.20656 15.994C5.54515 16.6862 5.77576 17.5356 5.88247 18.4534ZM15.2237 19.4255C15.7265 18.3721 16.1935 17.0517 15.9188 16.0377C14.9893 15.4757 13.5241 15.4898 12.3149 15.619C12.316 16.0184 12.2852 16.4401 12.2417 16.7741C12.9866 16.8452 13.556 16.9594 14.1115 17.2855C14.2618 17.9163 14.2028 18.6238 14.0452 19.1345C14.4563 19.2191 14.8631 19.3053 15.2237 19.4255ZM9.04559 17.4141C9.92455 17.0993 10.8176 16.862 11.6549 16.793C11.7438 16.1674 11.8258 15.6105 11.6852 15.1448C10.6845 15.0915 9.77202 15.1819 8.88826 15.4906C9.0179 16.1985 9.05134 16.7865 9.04559 17.4141Z" fill="#725110"/>
<path d="M16.1367 42.5371C15.2865 42.2489 14.5425 42.0629 13.9873 41.4611C13.8349 41.5748 13.6749 41.6779 13.5083 41.7699C14.1346 42.4976 15.1776 42.8635 15.9886 43.0809L16.1367 42.5371ZM14.2358 30.943C13.4433 31.7207 12.7078 33.2036 12.3613 34.8461C14.0532 35.241 15.4875 35.8661 15.6983 37.5386C16.9317 34.8817 16.5462 32.2759 14.2358 30.943L14.2358 30.943ZM14.8042 36.6554C14.3051 35.8905 13.1443 35.4928 11.9307 35.3575C10.8035 35.232 9.66871 35.3289 9.07734 35.448C8.87619 36.0131 8.62157 37.116 8.58984 38.2425C8.55571 39.4552 8.79076 40.6527 9.48375 41.2501C10.83 42.1627 12.6861 41.824 13.8223 40.871C14.8664 39.8182 15.6384 37.9793 14.8042 36.6554ZM13.4027 31.0277C12.8293 30.3164 12.0072 29.7489 10.8472 29.4524C10.3196 30.3279 10.1015 31.0657 9.92201 31.9435C10.6203 32.6135 11.3975 32.941 12.1936 33.3275C12.506 32.4371 12.9209 31.6423 13.4027 31.0277ZM12.0192 33.8709C10.6277 33.356 7.77647 32.2304 6.84075 32.8922C6.14892 33.5033 6.63782 36.7247 7.09546 38.1229C7.4058 38.0787 7.71782 38.0474 8.03072 38.0289C8.13674 36.9954 8.26622 35.9216 8.65159 34.9623C9.74589 34.7553 10.885 34.7013 11.7952 34.7785C11.8572 34.473 11.932 34.1703 12.0192 33.8709L12.0192 33.8709ZM10.2398 42.252C8.59286 41.8329 8.04502 39.9475 8.01935 38.5946C6.33381 38.7068 4.75319 39.2238 3.86776 39.8951C4.93957 42.6446 7.94466 42.9957 10.2398 42.252ZM10.0078 29.7143C9.24318 29.229 8.23802 28.8595 7.42082 28.7531C7.21203 29.2696 7.1203 29.8923 7.07136 30.4015C7.85373 30.6548 8.65054 31.0879 9.41618 31.5951C9.57224 30.9606 9.74868 30.2607 10.0078 29.7143ZM9.68524 32.4692C8.31029 31.6672 6.42032 30.4896 5.02275 30.8149C4.6772 32.6049 5.32566 34.3358 6.02218 35.6306C5.91482 34.601 5.73257 33.0484 6.41043 32.4015C7.35861 31.899 8.27058 32.1201 9.68524 32.4692ZM6.52908 38.2187C6.36711 37.2584 5.87838 36.5686 5.46521 35.7912C4.667 35.8673 3.52674 35.9595 2.85351 36.3544C2.98765 37.537 3.43893 38.4247 4.06811 39.0878C4.74787 38.6995 5.59801 38.4021 6.52908 38.2187ZM6.71093 29.0862C5.58781 28.691 4.19426 28.3537 3.17931 28.7082C2.68443 29.6575 2.82662 31.0755 3.06435 32.2353C3.47348 32.1995 3.90831 32.1926 4.25427 32.2056C4.26215 31.4779 4.32962 30.9164 4.61526 30.35C5.24844 30.1494 5.97849 30.1449 6.51556 30.2531C6.56638 29.8475 6.61927 29.446 6.71093 29.0862ZM5.18854 35.2455C4.78939 34.4216 4.46843 33.5773 4.32473 32.7723C3.67602 32.7407 3.09829 32.7098 2.63342 32.8866C2.66597 33.8605 2.83821 34.7365 3.23146 35.5656C3.94549 35.3783 4.54505 35.2947 5.18854 35.2455Z" fill="#725110"/>
<path d="M3.13149 0.595307C3.92481 1.00932 4.62975 1.30619 5.08129 1.98498C5.25009 1.89592 5.42477 1.81836 5.60408 1.75286C5.10255 0.938816 4.13131 0.418797 3.36523 0.0807956L3.13149 0.595307ZM3.1436 12.3358C4.05145 11.6883 5.01652 10.3354 5.62298 8.76591C4.01545 8.1185 2.69942 7.2829 2.76025 5.59896C1.11455 8.03559 1.07608 10.6679 3.14358 12.3358L3.1436 12.3358ZM3.50128 6.60733C3.87117 7.43871 4.95368 8.00807 6.13055 8.32622C7.22366 8.62168 8.36008 8.69861 8.96334 8.67087C9.25295 8.14329 9.68188 7.09269 9.89447 5.98488C10.1233 4.79235 10.0838 3.57382 9.49545 2.87844C8.31259 1.7723 6.42487 1.82447 5.14934 2.59294C3.94867 3.47401 2.89032 5.17282 3.50128 6.60733ZM3.98002 12.3789C4.43191 13.1686 5.15261 13.8541 6.25065 14.3235C6.91259 13.539 7.24674 12.8434 7.56521 12.0038C6.98334 11.2358 6.26841 10.7942 5.54429 10.2913C5.09246 11.1232 4.55475 11.8451 3.98002 12.3789ZM5.80393 9.78106C7.09549 10.5013 9.73052 12.0467 10.7612 11.5354C11.5428 11.0371 11.5782 7.7809 11.3512 6.33039C11.0376 6.32678 10.7243 6.31029 10.4123 6.28096C10.1413 7.28564 9.84067 8.32647 9.30571 9.21532C8.19157 9.2534 7.0578 9.13342 6.17123 8.91879C6.06084 9.21102 5.9383 9.4987 5.80392 9.78109L5.80393 9.78106ZM8.90989 1.77388C10.4691 2.43827 10.7069 4.38374 10.5146 5.72397C12.1974 5.86948 13.8418 5.59924 14.8243 5.07086C14.208 2.19224 11.2964 1.38836 8.90989 1.77388ZM7.12182 14.1925C7.79896 14.7881 8.73229 15.3059 9.52231 15.5353C9.81163 15.0569 10.0024 14.4559 10.1327 13.9604C9.4007 13.5911 8.68338 13.0422 8.00876 12.4248C7.75254 13.0277 7.46567 13.6922 7.12182 14.1925ZM7.88365 11.5206C9.11264 12.5218 10.7899 13.9724 12.2226 13.8637C12.8519 12.1482 12.4899 10.34 12.0103 8.95522C11.9507 9.98842 11.8809 11.5496 11.1073 12.0855C10.0899 12.4376 9.22473 12.0806 7.88365 11.5206ZM11.926 6.32185C11.9315 7.29501 12.3032 8.05065 12.5862 8.88134C13.3868 8.92756 14.5279 9.00989 15.2564 8.72225C15.3142 7.53387 15.0113 6.58843 14.4965 5.83784C13.7626 6.11795 12.8751 6.28237 11.926 6.32185ZM10.2771 15.3143C11.3227 15.8755 12.6449 16.4205 13.7044 16.2248C14.3459 15.3625 14.4336 13.9403 14.3854 12.7585C13.9756 12.7317 13.545 12.6724 13.2054 12.6069C13.0805 13.3245 12.9235 13.8688 12.5503 14.3848C11.8926 14.4866 11.1708 14.3801 10.6577 14.1915C10.5423 14.5843 10.4255 14.9729 10.2771 15.3143ZM12.7717 9.46232C13.0334 10.3368 13.2145 11.2195 13.2269 12.0365C13.8626 12.1664 14.4282 12.2847 14.9158 12.1808C15.0404 11.214 15.0112 10.3226 14.7562 9.44391C14.0208 9.52026 13.4152 9.51168 12.7717 9.46232Z" fill="#725110"/>
</svg>
