<svg width="51" height="48" viewBox="0 0 51 48" fill="none" xmlns="http://www.w3.org/2000/svg">
<path d="M39.047 19.5H36.6564V18.9619C37.46 18.1065 37.9873 17.0529 38.1762 15.925C38.3651 14.7972 38.2078 13.642 37.7228 12.5954C37.2377 11.5489 36.4452 10.6545 35.4383 10.0175C34.4315 9.38056 33.2523 9.02754 32.0395 9C31.5311 7.3294 30.5863 5.80522 29.2912 4.56656C28.2792 3.59168 27.0695 2.81793 25.7339 2.29118C24.3983 1.76442 22.9639 1.49538 21.5157 1.5C18.5364 1.5 15.7603 2.65125 13.6466 4.75125C12.6092 4.44015 11.4977 4.4216 10.4492 4.69789C9.40073 4.97417 8.46108 5.53322 7.74613 6.30609C7.03117 7.07897 6.57217 8.03187 6.42572 9.04732C6.27927 10.0628 6.45177 11.0963 6.92196 12.0206C6.16742 12.6509 5.58286 13.441 5.21644 14.3257C4.85003 15.2103 4.71227 16.1643 4.81452 17.109C4.91676 18.0536 5.25609 18.9618 5.80451 19.7588C6.35294 20.5558 7.09478 21.2187 7.96886 21.6928V41.25C7.97044 42.6419 8.55864 43.9764 9.6044 44.9607C10.6502 45.9449 12.0681 46.4985 13.547 46.5H31.0782C32.5572 46.4985 33.9751 45.9449 35.0208 44.9607C36.0666 43.9764 36.6548 42.6419 36.6564 41.25V40.5H39.047C40.9484 40.498 42.7714 39.7862 44.1159 38.5208C45.4605 37.2553 46.2167 35.5396 46.2189 33.75V26.25C46.2167 24.4604 45.4605 22.7447 44.1159 21.4792C42.7714 20.2138 40.9484 19.502 39.047 19.5ZM17.5314 39C17.5314 39.3978 17.3634 39.7794 17.0646 40.0607C16.7657 40.342 16.3603 40.5 15.9376 40.5C15.5149 40.5 15.1095 40.342 14.8107 40.0607C14.5118 39.7794 14.3439 39.3978 14.3439 39V24C14.3439 23.6022 14.5118 23.2206 14.8107 22.9393C15.1095 22.658 15.5149 22.5 15.9376 22.5C16.3603 22.5 16.7657 22.658 17.0646 22.9393C17.3634 23.2206 17.5314 23.6022 17.5314 24V39ZM23.9064 39C23.9064 39.3978 23.7384 39.7794 23.4396 40.0607C23.1407 40.342 22.7353 40.5 22.3126 40.5C21.8899 40.5 21.4845 40.342 21.1857 40.0607C20.8868 39.7794 20.7189 39.3978 20.7189 39V24C20.7189 23.6022 20.8868 23.2206 21.1857 22.9393C21.4845 22.658 21.8899 22.5 22.3126 22.5C22.7353 22.5 23.1407 22.658 23.4396 22.9393C23.7384 23.2206 23.9064 23.6022 23.9064 24V39ZM30.2814 39C30.2814 39.3978 30.1134 39.7794 29.8146 40.0607C29.5157 40.342 29.1103 40.5 28.6876 40.5C28.2649 40.5 27.8595 40.342 27.5607 40.0607C27.2618 39.7794 27.0939 39.3978 27.0939 39V24C27.0939 23.6022 27.2618 23.2206 27.5607 22.9393C27.8595 22.658 28.2649 22.5 28.6876 22.5C29.1103 22.5 29.5157 22.658 29.8146 22.9393C30.1134 23.2206 30.2814 23.6022 30.2814 24V39ZM31.8751 18C31.0454 18 29.8281 17.5144 29.2165 16.9397C28.9178 16.6583 28.5126 16.5002 28.09 16.5H15.9376C15.6111 16.5007 15.2927 16.5957 15.0255 16.7723C14.7583 16.9489 14.5551 17.1984 14.4435 17.4872C13.7631 19.2384 12.0927 19.5 11.1564 19.5C10.311 19.5 9.50022 19.1839 8.90245 18.6213C8.30468 18.0587 7.96886 17.2956 7.96886 16.5C7.96886 15.7043 8.30468 14.9413 8.90245 14.3787C9.50022 13.8161 10.311 13.5 11.1564 13.5C11.1653 13.5 12.0648 13.5319 12.7899 14.0437C12.9574 14.1619 13.1479 14.2479 13.3507 14.2968C13.5534 14.3457 13.7644 14.3565 13.9716 14.3287C14.1788 14.3008 14.3781 14.2348 14.5582 14.1345C14.7383 14.0341 14.8956 13.9013 15.0212 13.7437C15.1468 13.5862 15.2381 13.4068 15.2901 13.216C15.342 13.0252 15.3535 12.8266 15.3239 12.6316C15.2943 12.4366 15.2242 12.249 15.1176 12.0795C15.0109 11.91 14.8699 11.7619 14.7025 11.6437C13.6698 10.935 12.4338 10.5364 11.1564 10.5C10.6872 10.5003 10.2194 10.5496 9.76182 10.6472C9.60368 10.3049 9.53851 9.93093 9.57217 9.55901C9.60584 9.18709 9.73728 8.8289 9.95467 8.51671C10.172 8.20451 10.4685 7.94812 10.8174 7.77064C11.1663 7.59315 11.5566 7.50014 11.9532 7.5C12.3297 7.4983 12.7013 7.58109 13.037 7.74153C13.3727 7.90196 13.6629 8.1354 13.8837 8.4225C14.0633 8.65567 14.2203 8.90354 14.3528 9.16312C14.3961 9.54539 14.5936 9.89744 14.9047 10.1466C15.2157 10.3958 15.6165 10.523 16.0244 10.5021C16.4322 10.4811 16.816 10.3136 17.0964 10.0341C17.3768 9.75461 17.5325 9.38443 17.5314 9C17.5314 8.36531 17.1718 7.57781 16.4596 6.65625C16.4137 6.59718 16.3599 6.53906 16.3151 6.48187C17.7694 5.1975 19.5873 4.5 21.5157 4.5C22.5406 4.49722 23.5556 4.68813 24.5006 5.06142C25.4456 5.43471 26.3014 5.98277 27.0172 6.67312C27.9124 7.53761 28.5732 8.59226 28.9439 9.7479C29.3146 10.9035 29.3842 12.1262 29.1468 13.3125C29.1077 13.506 29.1094 13.7049 29.152 13.8978C29.1945 14.0907 29.277 14.2739 29.3948 14.4367C29.5125 14.5996 29.6632 14.7391 29.8382 14.8471C30.0133 14.9552 30.2092 15.0298 30.4148 15.0666C30.5134 15.084 30.6134 15.0928 30.7137 15.0928C31.0842 15.0925 31.4431 14.9706 31.7285 14.7482C32.0139 14.5257 32.208 14.2166 32.2775 13.8741C32.3989 13.2737 32.4642 12.6645 32.4728 12.0534C33.2518 12.1937 33.9473 12.6023 34.4234 13.1995C34.8994 13.7966 35.1219 14.5393 35.0472 15.2825C34.9725 16.0257 34.606 16.716 34.0195 17.2185C33.4329 17.7211 32.6683 17.9997 31.8751 18ZM43.0314 33.75C43.0314 34.7446 42.6116 35.6984 41.8644 36.4016C41.1171 37.1049 40.1037 37.5 39.047 37.5H36.6564V22.5H39.047C40.1037 22.5 41.1171 22.8951 41.8644 23.5983C42.6116 24.3016 43.0314 25.2554 43.0314 26.25V33.75Z" fill="#FFC700"/>
</svg>
