<svg width="36" height="36" viewBox="0 0 36 36" fill="none" xmlns="http://www.w3.org/2000/svg">
<path d="M23.625 28.8C24.5625 28.8 25.359 28.5372 26.0145 28.0116C26.6715 27.4872 27 26.85 27 26.1C27 25.35 26.6715 24.7128 26.0145 24.1884C25.359 23.6628 24.5625 23.4 23.625 23.4C22.6875 23.4 21.891 23.6628 21.2355 24.1884C20.5785 24.7128 20.25 25.35 20.25 26.1C20.25 26.85 20.5785 27.4872 21.2355 28.0116C21.891 28.5372 22.6875 28.8 23.625 28.8ZM12.2625 28.71L26.8875 17.01L23.7375 14.49L9.1125 26.19L12.2625 28.71ZM12.375 19.8C13.3125 19.8 14.109 19.5372 14.7645 19.0116C15.4215 18.4872 15.75 17.85 15.75 17.1C15.75 16.35 15.4215 15.7128 14.7645 15.1884C14.109 14.6628 13.3125 14.4 12.375 14.4C11.4375 14.4 10.641 14.6628 9.9855 15.1884C9.3285 15.7128 9 16.35 9 17.1C9 17.85 9.3285 18.4872 9.9855 19.0116C10.641 19.5372 11.4375 19.8 12.375 19.8ZM18 36C12.8625 36 8.5785 34.59 5.148 31.77C1.716 28.95 0 25.44 0 21.24C0 18.24 1.491 14.9778 4.473 11.4534C7.4535 7.9278 11.9625 4.11 18 0C24.0375 4.11 28.5473 7.9278 31.5293 11.4534C34.5098 14.9778 36 18.24 36 21.24C36 25.44 34.284 28.95 30.852 31.77C27.4215 34.59 23.1375 36 18 36Z" fill="#FFC700"/>
</svg>
